Coordinates
version=1
nRows=11
nColumns=63
inDegrees=yes

Units are S.I. units (second, meters, Newtons, ...)
If the header above contains a line with 'inDegrees', this indicates whether rotational values are in degrees (yes) or radians (no).

endheader
time	pelvis_tilt	pelvis_list	pelvis_rotation	pelvis_tx	pelvis_ty	pelvis_tz	hip_flexion_r	hip_adduction_r	hip_rotation_r	knee_angle_r	knee_angle_r_beta	ankle_angle_r	subtalar_angle_r	mtp_angle_r	hip_flexion_l	hip_adduction_l	hip_rotation_l	knee_angle_l	knee_angle_l_beta	ankle_angle_l	subtalar_angle_l	mtp_angle_l	L5_S1_Flex_Ext	L5_S1_Lat_Bending	L5_S1_axial_rotation	L4_L5_Flex_Ext	L4_L5_Lat_Bending	L4_L5_axial_rotation	L3_L4_Flex_Ext	L3_L4_Lat_Bending	L3_L4_axial_rotation	L2_L3_Flex_Ext	L2_L3_Lat_Bending	L2_L3_axial_rotation	L1_L2_Flex_Ext	L1_L2_Lat_Bending	L1_L2_axial_rotation	L1_T12_Flex_Ext	L1_T12_Lat_Bending	L1_T12_axial_rotation	Abs_r3	Abs_r2	Abs_r1	Abs_t1	Abs_t2	neck_flexion	neck_bending	neck_rotation	arm_flex_r	arm_add_r	arm_rot_r	elbow_flex_r	pro_sup_r	wrist_flex_r	wrist_dev_r	arm_flex_l	arm_add_l	arm_rot_l	elbow_flex_l	pro_sup_l	wrist_flex_l	wrist_dev_l
4.333333	-0.601427	4.683082	83.967185	0.276010	0.750417	0.571151	-3.217221	-3.376801	-4.623096	10.458691	0.182539	30.370357	5.003084	0.000000	-9.686756	2.891270	7.373797	0.498756	0.008705	23.170147	-11.798085	0.000000	-0.070280	-0.050265	1.089598	-0.130516	-0.066852	1.157698	-0.115462	-0.122214	1.157698	-0.080323	-0.122214	0.953399	-0.065262	-0.102500	0.885299	-0.040158	-0.077860	0.817199	-0.502000	-0.568608	6.060020	0.000000	0.000000	2.169200	0.480089	4.853873	70.532706	-7.150847	6.052047	119.509382	89.080589	-6.687225	6.898247	73.063552	-23.156829	10.973408	133.153645	88.425040	-6.501684	24.634316
4.350000	-0.596459	4.670655	83.894744	0.276415	0.750157	0.571043	-3.233822	-3.351904	-4.544605	10.399041	0.181497	30.465942	5.153880	0.000000	-9.682228	2.873466	7.240883	0.491845	0.008584	23.360102	-11.696447	0.000000	-0.068903	-0.060443	1.069039	-0.127960	-0.080389	1.135854	-0.113201	-0.146961	1.135854	-0.078750	-0.146961	0.935409	-0.063984	-0.123255	0.868594	-0.039371	-0.093626	0.801779	-0.492170	-0.683744	5.945674	0.000000	0.000000	1.562948	0.160903	4.772093	69.957625	-7.252446	6.203351	119.304188	89.087453	-6.269482	6.501472	73.082102	-23.345880	10.919762	132.945427	88.513608	-5.464223	25.829754
4.366667	-0.602622	4.647149	83.859970	0.276798	0.749809	0.570923	-3.256947	-3.332271	-4.455733	10.319717	0.180113	30.552651	5.229474	0.000000	-9.664187	2.858483	7.115029	0.485645	0.008476	23.560727	-11.544711	0.000000	-0.069116	-0.071571	1.034602	-0.128355	-0.095189	1.099265	-0.113550	-0.174017	1.099265	-0.078992	-0.174017	0.905277	-0.064181	-0.145947	0.840614	-0.039493	-0.110863	0.775952	-0.493687	-0.809622	5.754148	0.000000	0.000000	0.949301	-0.134506	4.812038	69.192489	-7.347288	6.506028	119.200602	89.098494	-5.574777	6.554773	73.007814	-23.593993	10.794888	132.867816	88.609275	-4.474137	26.909924
4.383333	-0.608062	4.609161	83.822597	0.277192	0.749387	0.570780	-3.289038	-3.305918	-4.290976	10.200270	0.178028	30.596982	5.191459	0.000000	-9.633437	2.840916	7.008397	0.479571	0.008370	23.749677	-11.418794	0.000000	-0.069778	-0.082941	1.000020	-0.129585	-0.110311	1.062521	-0.114639	-0.201663	1.062521	-0.079750	-0.201663	0.875017	-0.064796	-0.169133	0.812516	-0.039871	-0.128475	0.750015	-0.498420	-0.938244	5.561810	0.000000	0.000000	0.358274	-0.390685	4.892231	68.224460	-7.460996	6.900210	119.202545	89.111070	-4.514137	7.071068	72.828919	-23.851178	10.650234	132.886708	88.700868	-3.771512	27.450094
4.400000	-0.626500	4.560167	83.788392	0.277601	0.748903	0.570633	-3.319519	-3.287230	-4.042932	10.069437	0.175745	30.607323	5.011832	0.000000	-9.590797	2.833868	6.965312	0.473459	0.008263	23.906632	-11.367118	0.000000	-0.072701	-0.096578	0.962661	-0.135013	-0.128449	1.022827	-0.119440	-0.234820	1.022827	-0.083090	-0.234820	0.842328	-0.067510	-0.196942	0.782162	-0.041541	-0.149600	0.721996	-0.519294	-1.092512	5.354031	0.000000	0.000000	-0.157334	-0.605155	4.999755	67.077129	-7.589318	7.394407	119.299817	89.121700	-3.202549	7.913094	72.580666	-24.141527	10.471331	133.038540	88.769400	-3.407375	27.399173
4.416667	-0.658885	4.499132	83.784026	0.277989	0.748379	0.570443	-3.356037	-3.277039	-3.758381	9.917302	0.173090	30.579357	4.716149	0.000000	-9.535888	2.835151	6.965904	0.468484	0.008177	24.042542	-11.327666	0.000000	-0.076697	-0.111097	0.918050	-0.142435	-0.147759	0.975429	-0.126006	-0.270121	0.975429	-0.087657	-0.270121	0.803294	-0.071221	-0.226549	0.745916	-0.043825	-0.172089	0.688538	-0.547842	-1.256751	5.105921	0.000000	0.000000	-0.580812	-0.785287	5.216125	65.783136	-7.681799	7.912889	119.539286	89.127462	-1.625820	9.331424	72.257107	-24.476683	10.250122	133.333936	88.823693	-3.482528	26.746055
4.433333	-0.687201	4.430107	83.774776	0.278379	0.747850	0.570207	-3.400707	-3.257097	-3.380828	9.736269	0.169930	30.499499	4.282313	0.000000	-9.476504	2.832316	6.999605	0.462642	0.008075	24.157155	-11.340087	0.000000	-0.081767	-0.123890	0.872644	-0.151850	-0.164773	0.927184	-0.134335	-0.301226	0.927184	-0.093452	-0.301226	0.763563	-0.075929	-0.252636	0.709023	-0.046722	-0.191905	0.654483	-0.584054	-1.401467	4.853382	0.000000	0.000000	-0.917483	-0.942907	5.531108	64.390521	-7.734512	8.440633	119.841920	89.126897	0.061288	10.812802	71.838245	-24.829361	9.962095	133.724874	88.835624	-3.905448	25.360304
4.450000	-0.718882	4.355634	83.765042	0.278771	0.747349	0.569899	-3.450024	-3.236081	-2.927320	9.533203	0.166386	30.384311	3.739922	0.000000	-9.416261	2.833503	7.054384	0.456158	0.007961	24.248334	-11.386406	0.000000	-0.087211	-0.136225	0.829343	-0.161960	-0.181179	0.881177	-0.143279	-0.331218	0.881177	-0.099673	-0.331218	0.725675	-0.080984	-0.277790	0.673841	-0.049832	-0.211013	0.622007	-0.622940	-1.541006	4.612557	0.000000	0.000000	-1.176633	-1.060632	5.894226	62.969587	-7.761147	8.896416	120.240940	89.120981	1.867109	12.449116	71.351267	-25.185904	9.661687	134.203289	88.820116	-4.688624	23.496476
4.466667	-0.742291	4.276942	83.753280	0.279155	0.746888	0.569534	-3.501126	-3.204270	-2.438271	9.307218	0.162442	30.259239	3.161572	0.000000	-9.356607	2.827092	7.123133	0.449390	0.007843	24.332094	-11.454661	0.000000	-0.092816	-0.146116	0.787925	-0.172368	-0.194334	0.837170	-0.152487	-0.355266	0.837170	-0.106079	-0.355266	0.689434	-0.086188	-0.297959	0.640189	-0.053035	-0.226333	0.590944	-0.662972	-1.652891	4.382202	0.000000	0.000000	-1.379343	-1.161845	6.314257	61.613981	-7.736148	9.275730	120.669684	89.111219	3.599231	14.049389	70.821193	-25.531914	9.315482	134.739451	88.793610	-5.529633	21.419946
4.483333	-0.747327	4.204290	83.699308	0.279587	0.746524	0.569095	-3.553020	-3.157548	-1.956279	9.072044	0.158337	30.132956	2.646149	0.000000	-9.314515	2.809644	7.137223	0.438935	0.007661	24.399266	-11.519655	0.000000	-0.098716	-0.152826	0.756022	-0.183326	-0.203259	0.803274	-0.162181	-0.371582	0.803274	-0.112823	-0.371582	0.661520	-0.091668	-0.311643	0.614268	-0.056407	-0.236728	0.567017	-0.705121	-1.728802	4.204770	0.000000	0.000000	-1.567626	-1.236443	6.734942	60.395453	-7.673169	9.583035	121.048327	89.102245	5.179438	15.292436	70.279687	-25.873391	8.940682	135.331450	88.797220	-6.211162	19.475724
4.500000	-0.744418	4.136449	83.621642	0.280029	0.746250	0.568621	-3.610015	-3.095505	-1.326616	8.806761	0.153707	29.985865	1.982116	0.000000	-9.281032	2.789885	7.116787	0.432229	0.007544	24.472047	-11.569020	0.000000	-0.105175	-0.157703	0.732445	-0.195320	-0.209745	0.778223	-0.172791	-0.383440	0.778223	-0.120204	-0.383440	0.640889	-0.097665	-0.321588	0.595111	-0.060097	-0.244282	0.549334	-0.751252	-1.783970	4.073638	0.000000	0.000000	-1.705138	-1.272150	7.145706	59.373491	-7.567237	9.783351	121.364619	89.093546	6.551118	16.188394	69.738784	-26.189924	8.632551	135.907622	88.807348	-7.006773	17.529223
